<?xml version="1.0" encoding="UTF-8"?>
<svg width="48px" height="16px" viewBox="0 0 48 16" version="1.1" xmlns="http://www.w3.org/2000/svg" xmlns:xlink="http://www.w3.org/1999/xlink">
    <title>切片</title>
    <g id="页面-1" stroke="none" stroke-width="1" fill="none" fill-rule="evenodd">
        <g id="公共组件" transform="translate(-335.000000, -1009.000000)">
            <g id="label/风险2/中风险" transform="translate(335.000000, 1009.000000)">
                <rect id="Rectangle-2-Copy" stroke="#97DAFE" stroke-width="0.5" x="0.25" y="0.25" width="47.5" height="15.5"></rect>
                <text id="中风险" font-family="PingFangSC-Regular, PingFang SC" font-size="10" font-weight="normal" fill="#30B5FD">
                    <tspan x="14" y="12">中风险</tspan>
                </text>
                <path d="M8.16698908,4.02880615 L11.6669891,5.26893702 C11.8665956,5.33966223 12,5.52846144 12,5.74022742 L12,9.1799433 C12,10.5585616 11.0066721,11.7179942 9.02001642,12.658241 C8.47686103,12.8860803 8.13685556,13 8,13 C7.86314444,13 7.52474024,12.8860803 6.98478737,12.658241 C4.99492912,11.7191901 4,10.5597576 4,9.1799433 L4,5.74022742 C4,5.52846144 4.13340437,5.33966223 4.33301092,5.26893702 L7.83301092,4.02880615 C7.94104638,3.99052669 8.05895362,3.99052669 8.16698908,4.02880615 Z M9.84613518,7.11940915 C9.64685992,6.92759944 9.33034571,6.93419643 9.13918091,7.13414396 L9.13918091,7.13414396 L7.58100068,8.76275418 L6.86082045,8.00980868 L6.79278904,7.95032757 C6.60076654,7.81084463 6.33099974,7.82457635 6.15386617,7.99507387 C5.95459092,8.18688358 5.9480161,8.50446557 6.13918091,8.70441309 L6.13918091,8.70441309 L7.22058037,9.83549546 L7.29068203,9.8964869 C7.48866035,10.0388002 7.76728277,10.0184698 7.94221991,9.83549546 L7.94221991,9.83549546 L9.86082045,7.82874836 L9.91722527,7.75807625 C10.0481452,7.55977981 10.0232687,7.28990667 9.84613518,7.11940915 Z" id="形状结合" fill="#30B5FD"></path>
            </g>
        </g>
    </g>
</svg>