<?xml version="1.0" encoding="UTF-8"?>
<svg width="41px" height="16px" viewBox="0 0 41 16" version="1.1" xmlns="http://www.w3.org/2000/svg" xmlns:xlink="http://www.w3.org/1999/xlink">
    <title>切片</title>
    <defs>
        <linearGradient x1="3.31000475%" y1="52.9056909%" x2="97.0695352%" y2="52.9056909%" id="linearGradient-1">
            <stop stop-color="#FF5F4D" offset="0.0844594595%"></stop>
            <stop stop-color="#FF8B87" offset="99.9736064%"></stop>
        </linearGradient>
        <linearGradient x1="31.3245721%" y1="12.5036918%" x2="86.125%" y2="92.5317141%" id="linearGradient-2">
            <stop stop-color="#FFF7F7" offset="0%"></stop>
            <stop stop-color="#FFC5C5" offset="100%"></stop>
        </linearGradient>
        <path d="M9.50702013,2.71001184 L13.5070201,5.06295302 C13.8124588,5.24262284 14,5.57052295 14,5.92488723 L14,10.6633481 C14,11.0177123 13.8124588,11.3456125 13.5070201,11.5252823 L9.50702013,13.8782235 C9.19407101,14.0623112 8.80592899,14.0623112 8.49297987,13.8782235 L4.49297987,11.5252823 C4.18754118,11.3456125 4,11.0177123 4,10.6633481 L4,5.92488723 C4,5.57052295 4.18754118,5.24262284 4.49297987,5.06295302 L8.49297987,2.71001184 C8.80592899,2.52592413 9.19407101,2.52592413 9.50702013,2.71001184 Z" id="path-3"></path>
        <filter x="-45.0%" y="-36.9%" width="190.0%" height="173.8%" filterUnits="objectBoundingBox" id="filter-4">
            <feOffset dx="0" dy="0" in="SourceAlpha" result="shadowOffsetOuter1"></feOffset>
            <feGaussianBlur stdDeviation="1.5" in="shadowOffsetOuter1" result="shadowBlurOuter1"></feGaussianBlur>
            <feColorMatrix values="0 0 0 0 0.944001239   0 0 0 0 0.272920357   0 0 0 0 0.20839335  0 0 0 1 0" type="matrix" in="shadowBlurOuter1"></feColorMatrix>
        </filter>
    </defs>
    <g id="页面-1" stroke="none" stroke-width="1" fill="none" fill-rule="evenodd">
        <g id="新客专享-扫码购" transform="translate(-526.000000, -487.000000)">
            <g id="编组-14" transform="translate(290.000000, 140.000000)">
                <g id="编组-15备份-2" transform="translate(129.000000, 319.000000)">
                    <g id="tag/vip/new" transform="translate(107.000000, 28.000000)">
                        <path d="M1,0 L40,0 C40.5522847,-1.01453063e-16 41,0.44771525 41,1 L41,15 C41,15.5522847 40.5522847,16 40,16 L1,16 C0.44771525,16 6.76353751e-17,15.5522847 0,15 L0,1 C-6.76353751e-17,0.44771525 0.44771525,1.01453063e-16 1,0 Z" id="矩形" fill="url(#linearGradient-1)"></path>
                        <g id="Polygon-2">
                            <use fill="black" fill-opacity="1" filter="url(#filter-4)" xlink:href="#path-3"></use>
                            <use fill="url(#linearGradient-2)" fill-rule="evenodd" xlink:href="#path-3"></use>
                            <use fill-opacity="0.1" fill="#FFFFFF" fill-rule="evenodd" xlink:href="#path-3"></use>
                        </g>
                        <text id="专享" font-family="PingFangSC-Regular, PingFang SC" font-size="10" font-weight="normal" fill="#FFFFFF">
                            <tspan x="17" y="12">专享</tspan>
                        </text>
                        <path d="M9.2785958,6.37399851 L9.2785958,5.80747491 L8.08760868,5.80747491 C8.01035546,5.59502855 7.92666447,5.40189551 7.84941125,5.22807576 L7.21850997,5.33108006 C7.31507649,5.47914873 7.40520525,5.64009293 7.48245847,5.80747491 L6.33653572,5.80747491 L6.33653572,6.37399851 L9.2785958,6.37399851 Z M11.5446902,11.2473891 L11.5446902,7.87399851 L12.162716,7.87399851 L12.162716,7.2881616 L10.1734456,7.2881616 L10.1734456,6.24524315 C10.8429735,6.20017877 11.4545615,6.08429894 12.0082095,5.89116589 L11.7120722,5.35039336 C11.0811709,5.59502855 10.3730164,5.73022169 9.58117091,5.74309722 L9.58117091,8.5242131 C9.55541984,9.48344057 9.35584902,10.2302217 8.98889623,10.7709942 L9.42022671,11.2345135 C9.89018379,10.5585479 10.1412567,9.65726031 10.1734456,8.5242131 L10.1734456,7.87399851 L10.9459778,7.87399851 L10.9459778,11.2473891 L11.5446902,11.2473891 Z M7.48889623,11.2667024 C7.91378894,11.2667024 8.12623529,11.0735693 8.12623529,10.6873032 L8.12623529,8.96198134 L9.20778035,8.96198134 L9.20778035,8.40833328 L8.12623529,8.40833328 L8.12623529,7.82893413 L9.31722241,7.82893413 L9.31722241,7.2688483 L8.66057005,7.2688483 C8.75713658,7.07571525 8.84726533,6.8632689 8.92451855,6.62507147 L8.37730825,6.43193843 C8.30005503,6.721638 8.20992628,6.99846203 8.10692198,7.2688483 L7.495334,7.2688483 C7.40520525,6.94695988 7.30220095,6.67013585 7.19919666,6.43837619 L6.6648619,6.63794701 C6.77430396,6.83108006 6.87087048,7.04352641 6.95456147,7.2688483 L6.27215804,7.2688483 L6.27215804,7.82893413 L7.52108507,7.82893413 L7.52108507,8.40833328 L6.37516233,8.40833328 L6.37516233,8.96198134 L7.52108507,8.96198134 L7.52108507,10.5456723 C7.52108507,10.6744277 7.44383186,10.7388054 7.28932542,10.7388054 C7.20563443,10.7388054 7.11550568,10.7259298 7.01893915,10.7001788 L7.15413228,11.2667024 L7.48889623,11.2667024 Z M8.66057005,10.5134835 L9.17559151,10.3203504 C9.07902499,9.98558649 8.94383186,9.61219594 8.77644988,9.20017877 L8.27430396,9.3353719 C8.4288104,9.721638 8.55756576,10.1143419 8.66057005,10.5134835 Z M6.6648619,11.0606938 C6.9481237,10.5778612 7.16057005,10.0113376 7.31507649,9.36112297 L6.76142842,9.24524315 C6.64554859,9.77314014 6.44597778,10.2752861 6.16271598,10.7388054 L6.6648619,11.0606938 Z" id="新" fill="#FB5C4B" fill-rule="nonzero"></path>
                    </g>
                </g>
            </g>
        </g>
    </g>
</svg>