<?xml version="1.0" encoding="UTF-8"?>
<svg width="41px" height="16px" viewBox="0 0 41 16" version="1.1" xmlns="http://www.w3.org/2000/svg" xmlns:xlink="http://www.w3.org/1999/xlink">
    <title>切片</title>
    <defs>
        <linearGradient x1="3.31000475%" y1="52.9056909%" x2="97.0695352%" y2="52.9056909%" id="linearGradient-1">
            <stop stop-color="#FF4400" offset="0.0844594595%"></stop>
            <stop stop-color="#FFA800" offset="99.9736064%"></stop>
        </linearGradient>
        <linearGradient x1="23.1565137%" y1="27.2505327%" x2="82.1116728%" y2="74.7469815%" id="linearGradient-2">
            <stop stop-color="#FFE188" offset="0%"></stop>
            <stop stop-color="#FBB700" offset="100%"></stop>
        </linearGradient>
        <path d="M9.5,11.6917961 L6.63673247,13.1306828 C6.48868923,13.2050794 6.30836609,13.145377 6.23396946,12.9973338 C6.20483612,12.9393608 6.19528245,12.8735053 6.20674121,12.8096436 L6.75,9.78196601 L6.75,9.78196601 L4.46137119,7.64954161 C4.34015015,7.5365942 4.33344305,7.34676315 4.44639046,7.22554211 C4.49338733,7.17510263 4.55632243,7.14238874 4.62460778,7.13290413 L7.80040653,6.69179607 L7.80040653,6.69179607 L9.23343367,3.91628934 C9.30944538,3.76906882 9.49041085,3.71134267 9.63763137,3.78735438 C9.69294628,3.81591413 9.73800658,3.86097442 9.76656633,3.91628934 L11.1995935,6.69179607 L11.1995935,6.69179607 L14.3753922,7.13290413 C14.5395022,7.15569847 14.6540611,7.30721434 14.6312668,7.4713243 C14.6217822,7.53960964 14.5890683,7.60254475 14.5386288,7.64954161 L12.25,9.78196601 L12.25,9.78196601 L12.7932588,12.8096436 C12.8225206,12.9727246 12.7140386,13.1286492 12.5509576,13.157911 C12.487096,13.1693698 12.4212405,13.1598161 12.3632675,13.1306828 L9.5,11.6917961 L9.5,11.6917961 Z" id="path-3"></path>
        <filter x="-37.6%" y="-41.5%" width="175.2%" height="184.1%" filterUnits="objectBoundingBox" id="filter-4">
            <feOffset dx="0" dy="0" in="SourceAlpha" result="shadowOffsetOuter1"></feOffset>
            <feGaussianBlur stdDeviation="1.5" in="shadowOffsetOuter1" result="shadowBlurOuter1"></feGaussianBlur>
            <feColorMatrix values="0 0 0 0 0.918632618   0 0 0 0 0.244968698   0 0 0 0 0  0 0 0 1 0" type="matrix" in="shadowBlurOuter1"></feColorMatrix>
        </filter>
    </defs>
    <g id="页面-1" stroke="none" stroke-width="1" fill="none" fill-rule="evenodd">
        <g id="公共组件" transform="translate(-248.000000, -1179.000000)">
            <g id="编组-6" transform="translate(248.000000, 1179.000000)">
                <path d="M1,0 L40,0 C40.5522847,-1.01453063e-16 41,0.44771525 41,1 L41,15 C41,15.5522847 40.5522847,16 40,16 L1,16 C0.44771525,16 6.76353751e-17,15.5522847 0,15 L0,1 C-6.76353751e-17,0.44771525 0.44771525,1.01453063e-16 1,0 Z" id="矩形" fill="url(#linearGradient-1)"></path>
                <text id="重点" font-family="PingFangSC-Regular, PingFang SC" font-size="10" font-weight="normal" fill="#FFFFFF">
                    <tspan x="17" y="12">重点</tspan>
                </text>
                <g id="Mask">
                    <use fill="black" fill-opacity="1" filter="url(#filter-4)" xlink:href="#path-3"></use>
                    <use fill="url(#linearGradient-2)" fill-rule="evenodd" xlink:href="#path-3"></use>
                </g>
            </g>
        </g>
    </g>
</svg>