<?xml version="1.0" encoding="UTF-8"?>
<svg width="100px" height="80px" viewBox="0 0 100 80" version="1.1" xmlns="http://www.w3.org/2000/svg" xmlns:xlink="http://www.w3.org/1999/xlink">
    <title>小图_4040</title>
    <g id="页面-1" stroke="none" stroke-width="1" fill="none" fill-rule="evenodd">
        <g id="公共组件" transform="translate(-1339.000000, -1567.000000)">
            <g id="小图_4040" transform="translate(1339.000000, 1567.000000)">
                <rect id="矩形" fill="#D8D8D8" opacity="0" x="0" y="0" width="100" height="80"></rect>
                <ellipse id="椭圆形" fill="#F9FAFE" cx="52" cy="61" rx="35" ry="8"></ellipse>
                <g id="4" transform="translate(9.000000, 20.000000)" stroke="#BFCEED">
                    <g transform="translate(0.000000, 0.038195)" stroke-linejoin="round">
                        <polygon id="路径-7" fill="#FFFFFF" points="21.0775562 1.09642197 23.0355256 3.13048369 23.0355256 27.1190991 20.9667032 27.0201827"></polygon>
                        <polygon id="路径-8" fill="#FFFFFF" points="24.7089655 27.1190991 26.5 28.7482839 26.5 32.9185919 24.7089655 33.6347748"></polygon>
                        <polygon id="路径-10" fill="#FFFFFF" points="23.0355256 33.7972973 23.0355256 37.208947 21.0725517 39.3230631 20.9667032 33.7972973"></polygon>
                        <polygon id="路径-9" fill="#FFFFFF" points="14.872 17.180882 9.41234981 27.1190991 6.62013793 27.1190991 14.872 12.7432432"></polygon>
                        <path d="M21.0725517,39.3230631 L21.0725517,33.6347748 L24.7089655,33.6347748 L24.7089655,27.1190991 L21.0725517,27.1190991 L21.0725517,1.10810811 L15.8510345,1.10810811 L0,27.9981982 L0,33.6347748 L14.872,33.6347748 L14.872,39.3230631 L21.0725517,39.3230631 Z M14.872,27.1190991 L6.62013793,27.1190991 L14.872,12.7432432 L14.872,27.1190991 Z" id="404" fill="#F4F7FD" fill-rule="nonzero"></path>
                    </g>
                    <g transform="translate(56.000000, 0.038195)" stroke-linejoin="round">
                        <polygon id="路径-7" fill="#FFFFFF" points="21.0775562 1.09642197 23.0355256 3.13048369 23.0355256 27.1190991 20.9667032 27.0201827"></polygon>
                        <polygon id="路径-8" fill="#FFFFFF" points="24.7089655 27.1190991 26.5 28.7482839 26.5 32.9185919 24.7089655 33.6347748"></polygon>
                        <polygon id="路径-10" fill="#FFFFFF" points="23.0355256 33.7972973 23.0355256 37.208947 21.0725517 39.3230631 20.9667032 33.7972973"></polygon>
                        <polygon id="路径-9" fill="#FFFFFF" points="14.872 17.180882 9.41234981 27.1190991 6.62013793 27.1190991 14.872 12.7432432"></polygon>
                        <path d="M21.0725517,39.3230631 L21.0725517,33.6347748 L24.7089655,33.6347748 L24.7089655,27.1190991 L21.0725517,27.1190991 L21.0725517,1.10810811 L15.8510345,1.10810811 L0,27.9981982 L0,33.6347748 L14.872,33.6347748 L14.872,39.3230631 L21.0725517,39.3230631 Z M14.872,27.1190991 L6.62013793,27.1190991 L14.872,12.7432432 L14.872,27.1190991 Z" id="404" fill="#F4F7FD" fill-rule="nonzero"></path>
                    </g>
                    <g id="0" transform="translate(29.000000, 0.000000)">
                        <path d="M13.8120017,7.21401408 C10.4178199,7.67400518 8.72072897,10.0096998 8.72072897,14.2210978 C8.72072897,20.5381949 8.72072897,24.2537258 8.72072897,28.5609367 C8.72072897,31.4324106 11.1471526,32.5452 16,31.8993048 L10.2858748,35.3614215 C6.09529161,36.218458 4,33.0318013 4,25.8014516 C4,14.9559269 6.61568876,3.76702013 11.464185,4.50527149 C14.6965159,4.99743906 15.4791215,5.90035326 13.8120017,7.21401408 Z" id="路径-24" fill="#FFFFFF"></path>
                        <path d="M10.0932015,0.223846324 C13.1293321,-0.0746154413 15.3716656,-0.0746154413 16.820202,0.223846324 C18.9930066,0.671538972 21.2667777,2.3659698 22.4733,4.15596968 C23.6798222,5.94596957 24.973098,9.10223067 24.973098,14.5620574 C24.973098,20.0218842 25.1590289,27.6761468 24.5532821,31.7260319 C23.9475353,35.7759171 18.7196058,40.4513333 10.6769936,39.8828921 C5.31525209,39.5039312 8.00777118,36.7849779 18.7545508,31.7260319 L19.7977538,9.10223067 L10.0932015,0.223846324 Z" id="路径-25" fill="#FFFFFF"></path>
                        <path d="M11.8949495,0.0381948819 L12.3393838,0.0669481286 C13.6678081,0.177298427 14.9523232,0.504463748 16.1929293,1.04844409 C17.5713805,1.6528667 18.7872054,2.54223139 19.840404,3.71653816 C21.0484848,5.02899867 21.8771044,6.53142058 22.3262626,8.22380387 C22.7754209,9.91618716 23,11.6776473 23,13.5081844 L23,13.5081844 L23,26.4600973 L22.9931163,27.0331795 C22.9564035,28.5545762 22.7728395,30.0213937 22.4424242,31.4336319 C22.0707071,33.0223999 21.3582492,34.4730141 20.3050505,35.7854746 C19.3138047,37.0288583 18.1289562,37.9959344 16.7505051,38.6867031 C15.3720539,39.3774718 13.9548822,39.7746638 12.4989899,39.8782791 C12.3750842,39.9128176 12.2511785,39.9300868 12.1272727,39.9300868 L12.1272727,39.9300868 L11.7555556,39.9300868 L11.3179815,39.9225939 C9.86516125,39.8726417 8.46994184,39.572928 7.13232323,39.0234529 C5.66094276,38.4190303 4.33670034,37.4951271 3.15959596,36.2517435 C1.82760943,34.8702061 0.968013468,33.3246112 0.580808081,31.6149587 C0.193602694,29.9053061 -9.59232693e-14,28.1006729 -9.59232693e-14,26.201059 L-9.59232693e-14,26.201059 L-9.59232693e-14,13.4563767 L0.00871212121,12.8358991 C0.0493686869,11.3909513 0.232323232,9.96583616 0.557575758,8.5605536 C0.929292929,6.9545164 1.62626263,5.51253676 2.64848485,4.23461468 C3.63973064,2.99123103 4.82457912,2.02415487 6.2030303,1.33338618 C7.58148148,0.642617486 8.9986532,0.228156272 10.4545455,0.0900025337 C10.640404,0.0554640991 10.8185185,0.0381948819 10.9888889,0.0381948819 L10.9888889,0.0381948819 L11.8949495,0.0381948819 Z M11.430303,6.77318962 L11.1050505,6.77318962 L10.8389678,6.80637889 C10.2206492,6.90081993 9.62011785,7.11425666 9.03737374,7.44668909 C8.37138047,7.82661187 7.80606061,8.31014995 7.34141414,8.89730334 C6.84579125,9.62261047 6.52828283,10.3738214 6.38888889,11.1509362 C6.24949495,11.928051 6.17979798,12.7483388 6.17979798,13.6117997 L6.17979798,13.6117997 L6.17979798,26.6155203 L6.18496072,26.8285073 C6.19184437,26.9743362 6.20561167,27.1278404 6.22626263,27.2890197 C6.25723906,27.9797884 6.35016835,28.6705571 6.50505051,29.3613258 C6.65993266,30.0520945 6.95420875,30.6737863 7.38787879,31.2264013 C7.82154882,31.7790162 8.34040404,32.2280159 8.94444444,32.5734002 C9.54848485,32.9187846 10.1757576,33.1260152 10.8262626,33.195092 C10.9191919,33.2296305 11.0198653,33.2468997 11.1282828,33.2468997 L11.1282828,33.2468997 L11.430303,33.2468997 C12.2356902,33.2468997 13.010101,33.0655729 13.7535354,32.7029193 C14.4969697,32.3402658 15.1164983,31.8135547 15.6121212,31.122786 C16.1387205,30.3974788 16.4717172,29.6030948 16.6111111,28.739634 C16.7505051,27.8761731 16.820202,26.995443 16.820202,26.0974437 L16.820202,26.0974437 L16.820202,13.3009537 L16.8140067,12.9452079 C16.7561841,11.3011784 16.2936027,9.88280001 15.4262626,8.69007273 C14.4969697,7.41215066 13.1649832,6.77318962 11.430303,6.77318962 L11.430303,6.77318962 Z" id="形状结合" fill="#F4F7FD" fill-rule="nonzero"></path>
                    </g>
                </g>
            </g>
        </g>
    </g>
</svg>