<?xml version="1.0" encoding="UTF-8"?>
<svg width="100px" height="80px" viewBox="0 0 100 80" version="1.1" xmlns="http://www.w3.org/2000/svg" xmlns:xlink="http://www.w3.org/1999/xlink">
    <title>小图_无内容/无数据</title>
    <g id="页面-1" stroke="none" stroke-width="1" fill="none" fill-rule="evenodd">
        <g id="产品对比无记录" transform="translate(-490.000000, -503.000000)">
            <g id="小图_无内容/无数据" transform="translate(490.000000, 503.000000)">
                <rect id="矩形" fill="#D8D8D8" opacity="0" x="0" y="0" width="100" height="80"></rect>
                <ellipse id="椭圆形" fill="#F9FAFE" cx="50" cy="62" rx="35" ry="8"></ellipse>
                <path d="M40.6428571,30 C39.1295571,30.2873416 38.1971879,30.7345356 37.8457495,31.3415818 C37.4943111,31.948628 34.0457279,36.9740895 27.5,46.4179662 L40.6428571,47 C41.1342964,47.7596396 41.380016,48.3755816 41.380016,48.8478261 C41.380016,49.5561928 41.5820662,52.18293 43.1869144,52.5479867 C44.2568132,52.7913579 48.2925332,52.9130435 55.2940743,52.9130435 C57.6781951,53.0585473 59.0592297,52.1971753 59.4371783,50.3289274 C59.8151268,48.4606795 60.1217816,47.351037 60.3571429,47 L73.502837,47 L68.3577485,36.3901501 C66.4834105,32.6239199 65.3003062,30.7408049 64.8084358,30.7408049 C64.0706301,30.7408049 62.2849403,30 60.3571429,30 C59.0719445,30 52.500516,30 40.6428571,30 Z" id="路径-6" fill="#FFFFFF"></path>
                <g id="无数据" transform="translate(26.500000, 30.000000)">
                    <path d="M0.9160344,16.77407 L10.8950728,1.81608711 C11.6333592,0.68319237 12.8940435,0 14.2462703,0 L35.8187185,0 C37.3160424,0 38.6879853,0.836254288 39.3740826,2.16713721 L47.002837,16.7366877" id="路径" stroke="#BFCEED"></path>
                    <path d="M46.952206,17 L46.9941518,31.2711437 C46.9973865,32.3716913 46.110847,33.2680587 45.0103306,33.2769567 L3.27298219,33.614417 C2.17583349,33.6232878 1.27637415,32.7465953 1.25712004,31.6495797 L1,17 L14.54,17 L15.1595972,20.4433905 C15.4056367,21.8132355 16.5581391,22.8256804 17.9319549,22.9076726 L18.1123471,22.9130435 L29.8876529,22.9130435 C31.3399297,22.9130435 32.5836659,21.872794 32.8404028,20.4433905 L32.8404028,20.4433905 L33.459,17 L46.952206,17 Z" id="形状结合" fill="#F4F7FD"></path>
                    <path d="M46.952206,17 L46.9941518,31.2711437 C46.9973865,32.3716913 46.110847,33.2680587 45.0103306,33.2769567 L3.27298219,33.614417 C2.17583349,33.6232878 1.27637415,32.7465953 1.25712004,31.6495797 L1,17 L14.54,17 L15.1595972,20.4433905 C15.4056367,21.8132355 16.5581391,22.8256804 17.9319549,22.9076726 L18.1123471,22.9130435 L29.8876529,22.9130435 C31.3399297,22.9130435 32.5836659,21.872794 32.8404028,20.4433905 L32.8404028,20.4433905 L33.459,17 L46.952206,17 Z" id="形状结合" stroke="#BFCEED"></path>
                </g>
            </g>
        </g>
    </g>
</svg>