<?xml version="1.0" encoding="UTF-8"?>
<svg width="100px" height="80px" viewBox="0 0 100 80" version="1.1" xmlns="http://www.w3.org/2000/svg" xmlns:xlink="http://www.w3.org/1999/xlink">
    <title>小_网络相关</title>
    <g id="页面-1" stroke="none" stroke-width="1" fill="none" fill-rule="evenodd">
        <g id="产品对比网络不给力" transform="translate(-304.000000, -450.000000)">
            <g id="编组-10" transform="translate(300.000000, 450.000000)">
                <g id="小_网络相关" transform="translate(4.000000, 0.000000)">
                    <rect id="矩形" x="0" y="0" width="100" height="80"></rect>
                    <ellipse id="椭圆形" fill="#F9FAFE" cx="50" cy="62" rx="35" ry="8"></ellipse>
                    <g id="编组-4" transform="translate(17.000000, 17.000000)">
                        <path d="M36.5327734,39.471831 C37.9913637,39.471831 39.3345542,39.8403589 40.3989644,40.4639321 L40.3989644,40.4639321 L42.6994401,40.4646358 L42.6994401,44.1163468 C42.6315722,45.2973879 41.9276614,46.346873 40.8622689,47.109356 C39.7388879,47.9133405 38.2119239,48.4014085 36.5327734,48.4014085 C34.8534611,48.4014085 33.3263552,47.9132565 32.2035489,47.1091757 C31.1390729,46.3468673 30.4364639,45.2977079 30.3710941,44.1171099 L30.3710941,44.1171099 L30.3667074,40.4646428 L32.6665141,40.4639722 C33.7309351,39.8403746 35.0741519,39.471831 36.5327734,39.471831 Z" id="形状结合" stroke="#BFCEED" fill="#FFFFFF" transform="translate(36.532773, 43.936620) scale(-1, 1) translate(-36.532773, -43.936620) "></path>
                        <ellipse id="椭圆形" stroke="#BFCEED" fill="#F4F7FD" transform="translate(36.532773, 39.964789) scale(-1, 1) translate(-36.532773, -39.964789) " cx="36.5327734" cy="39.9647887" rx="6.16666667" ry="4.46478873"></ellipse>
                        <polygon id="路径-12" fill="#FFFFFF" points="0.499865301 25.6796722 0.499865301 30.3924518 8.9889556 34.7617973 9.3464049 30.2207348"></polygon>
                        <polygon id="路径-10" fill="#FFFFFF" points="58.9950138 8.94305442 55.7436021 17.1646657 55.9979135 20.4162762 59.3238306 12.3720868"></polygon>
                        <polygon id="路径-8" fill="#FFFFFF" points="51.8659267 23.2572387 48.5864123 31.2919726 48.8972723 35.331393 52.160012 27.7723335"></polygon>
                        <path d="M20.7401002,10.1771565 C27.8598139,7.16321956 34.3100263,10.9508888 39.7282268,14.0698949 C42.1189546,15.4461258 44.3201688,16.7060422 46.2975632,17.2835441 C48.3178842,17.8735828 50.7314541,19.6527417 52.632613,22.4287496 C54.1968738,24.7128304 55.4118244,27.6737866 55.7812662,31.2246107 C55.8517806,31.9023465 55.0156497,33.1914769 53.4569232,35.1008139 C49.5609073,28.8271478 45.604775,24.136849 41.5970631,21.0217385 C37.3952614,17.7557661 33.1302129,16.2112435 28.8097728,16.3604072 C20.6348559,16.6426473 13.4784857,18.145669 7.33876118,20.8621824 L7.33876118,20.8621824 L7.44802434,16.8257979 C9.65780227,15.2042156 14.0910467,12.9918523 20.7401002,10.1771565 Z" id="路径-9" stroke="#BFCEED" fill="#FFFFFF" transform="translate(31.550385, 22.268721) scale(-1, 1) translate(-31.550385, -22.268721) "></path>
                        <polygon id="路径-14" fill="#FFFFFF" points="0.499865301 25.6796722 0.499865301 30.2207348 9.3464049 34.7617973 9.3464049 30.2207348"></polygon>
                        <polygon id="路径" fill="#BFCEED" fill-rule="nonzero" transform="translate(4.923191, 30.815532) scale(-1, 1) translate(-4.923191, -30.815532) " points="8.84642817 25.674848 9.84638162 25.6844965 9.80056935 30.4323926 0.147982198 35.9562168 5.68434189e-13 29.5822479 0.999730603 29.5590375 1.10810676 34.254 8.80610676 29.848"></polygon>
                        <polygon id="路径" fill="#BFCEED" fill-rule="nonzero" transform="translate(57.615753, 14.693948) scale(-1, 1) translate(-57.615753, -14.693948) " points="56.3709575 7.74035215 56.3989216 12.129 59.8605493 21.2247121 58.9480551 21.6475443 55.4325606 12.4003542 55.3995975 12.2218142 55.3709575 7.74035215"></polygon>
                        <path d="M26.1752764,26.4414284 C28.6056252,25.410909 32.3226627,25.6701848 36.035265,26.4403315 C41.5616838,27.5867385 47.1101378,29.8975274 48.5279007,31.1062295 C48.828802,31.3627603 48.9384232,31.7600957 48.9191172,32.2659159 C48.8944004,32.9134962 48.6605669,33.722115 48.2350484,34.6949325 C47.3902062,36.6264049 45.7980931,39.1611304 43.4648348,42.3016508 C41.9885502,39.2414211 40.3094636,36.8987498 38.4375575,35.2656245 C36.366021,33.4583337 34.0557602,32.5093541 31.5103414,32.4093519 C26.8679885,32.2269671 22.7407734,33.2783926 19.126597,35.5567565 L19.126597,35.5567565 L19.126597,30.6535527 C20.3767682,29.1759972 22.7936861,27.8752942 26.1752764,26.4414284 Z" id="路径-9" stroke="#BFCEED" fill="#FFFFFF" transform="translate(33.891852, 34.268634) scale(-1, 1) translate(-33.891852, -34.268634) "></path>
                        <polygon id="路径-13" fill="#FFFFFF" points="15.2887033 34.0393287 15.2887033 37.6284857 23.9334654 42.301937 23.9334654 38.1706328"></polygon>
                        <polygon id="路径" fill="#BFCEED" fill-rule="nonzero" transform="translate(19.530791, 38.654985) scale(-1, 1) translate(-19.530791, -38.654985) " points="23.418292 34.0393287 24.4182913 34.0405574 24.413543 37.9049682 14.6432906 43.2706421 14.6432906 38.4073373 15.6432906 38.4073373 15.6431068 41.58 23.4131068 37.313"></polygon>
                        <polygon id="路径" fill="#BFCEED" fill-rule="nonzero" transform="translate(50.446273, 29.409966) scale(-1, 1) translate(-50.446273, -29.409966) " points="48.3245022 22.3326006 49.3244267 22.3448882 49.2994245 27.101 52.5940295 35.8724707 51.7354393 36.4873311 48.3304029 27.3653613 48.2985159 27.1834175"></polygon>
                        <path d="M0.645474599,8.03627493 C13.8507623,3.22937192 25.4751472,2.23581578 35.2841757,5.08591994 C45.1298661,7.94667654 53.129535,14.684801 59.0605833,25.2697172 L59.0605833,25.2697172 L50.6762947,30.045741 C46.0237693,21.6927931 39.9948294,16.4342686 32.375452,14.2349328 C24.7074876,12.0215722 15.406464,12.9133973 4.22603996,16.9498065 L4.22603996,16.9498065 Z" id="路径-7" stroke="#BFCEED" fill="#F4F7FD" fill-rule="nonzero" transform="translate(29.930505, 16.860109) scale(-1, 1) translate(-29.930505, -16.860109) "></path>
                        <path d="M15.2995886,22.6191542 C23.4308834,19.6425129 30.6979556,19.0680759 36.8668469,20.9192552 C42.9536907,22.7458134 47.955864,26.9375895 51.6629651,33.4634591 L51.6629651,33.4634591 L43.339584,38.3465131 C40.858861,33.9047649 37.7270604,31.1383024 33.7345504,30.0015002 C29.7858121,28.8771612 24.9708168,29.3545293 19.0561629,31.4688308 L19.0561629,31.4688308 Z" id="路径-7" stroke="#BFCEED" fill="#F4F7FD" fill-rule="nonzero" transform="translate(33.601405, 29.198749) scale(-1, 1) translate(-33.601405, -29.198749) "></path>
                        <path d="M23.0913876,1.36534724 L39.5454236,12.1500718 L31.0205595,17.2923178 L40.2215043,28.1492657 L16.9135238,19.0275871 L27.6758844,11.4351526 L23.0913876,1.36534724 Z" id="路径-11" stroke="#BFCEED" fill="#FFFFFF"></path>
                    </g>
                </g>
            </g>
        </g>
    </g>
</svg>