<?xml version="1.0" encoding="UTF-8"?>
<svg width="100px" height="80px" viewBox="0 0 100 80" version="1.1" xmlns="http://www.w3.org/2000/svg" xmlns:xlink="http://www.w3.org/1999/xlink">
    <title>编组</title>
    <g id="页面-1" stroke="none" stroke-width="1" fill="none" fill-rule="evenodd">
        <g id="公共组件" transform="translate(-1823.000000, -1566.000000)">
            <g id="编组" transform="translate(1823.000000, 1566.000000)">
                <rect id="矩形" opacity="0" x="-9.09494702e-13" y="-9.09494702e-13" width="100" height="80"></rect>
                <ellipse id="椭圆形" fill="#F9FAFE" cx="50" cy="62" rx="35" ry="8"></ellipse>
                <g transform="translate(32.000000, 16.000000)" stroke="#BFCEED">
                    <path d="M0,21.119281 L36,21.119281 L36,40.3186275 L36,40.3186275 C36,43.7117494 33.2493311,46.4624183 29.8562092,46.4624183 L6.14379085,46.4624183 C2.75066886,46.4624183 4.15537599e-16,43.7117494 0,40.3186275 L0,21.119281 Z" id="形状结合" fill="#F4F7FD"></path>
                    <path d="M18,31.3333333 C19.9882251,31.3333333 21.6,32.9837346 21.6,35.0196078 C21.6,36.383822 20.8762842,37.5749524 19.800539,38.2124051 L19.8,39.6705882 C19.8,40.6647008 18.9941125,41.4705882 18,41.4705882 C17.0058875,41.4705882 16.2,40.6647008 16.2,39.6705882 L16.2004699,38.2130028 C15.1241683,37.575697 14.4,36.3842484 14.4,35.0196078 C14.4,32.9837346 16.0117749,31.3333333 18,31.3333333 Z" id="形状结合" fill="#FFFFFF"></path>
                    <rect id="矩形" fill="#FFFFFF" x="0" y="16.127451" width="36" height="9.98366013" rx="4.99183007"></rect>
                    <path d="M17.625,0.383986928 C24.380966,0.383986928 29.8724618,5.86426868 29.9978105,12.6728181 L30,12.9108578 L30,21.3849176 C29.3959069,21.7198091 28.7892892,21.8872549 28.1801471,21.8872549 C27.5710049,21.8872549 26.9643872,21.7198091 26.3602941,21.3849176 L26.3602941,12.9108578 C26.3602941,8.02728154 22.4493697,4.06836073 17.625,4.06836073 C12.8748513,4.06836073 9.01025822,7.90640561 8.89247196,12.6861296 L8.88970588,12.9108578 L8.88970588,21.3849176 C8.28721268,21.7198091 7.68059503,21.8872549 7.06985294,21.8872549 C6.45911085,21.8872549 5.8524932,21.7198091 5.25,21.3849176 L5.25,12.9108578 C5.25,5.99245808 10.7904762,0.383986928 17.625,0.383986928 Z" id="路径" fill="#FFFFFF" fill-rule="nonzero"></path>
                </g>
            </g>
        </g>
    </g>
</svg>