<?xml version="1.0" encoding="UTF-8"?>
<svg width="100px" height="80px" viewBox="0 0 100 80" version="1.1" xmlns="http://www.w3.org/2000/svg" xmlns:xlink="http://www.w3.org/1999/xlink">
    <title>小_系统/页面、数据维护</title>
    <g id="页面-1" stroke="none" stroke-width="1" fill="none" fill-rule="evenodd">
        <g id="产品对比服务器宕机等错误-而失败" transform="translate(-307.000000, -450.000000)">
            <g id="编组-6" transform="translate(24.000000, 137.000000)">
                <g id="编组-10" transform="translate(273.000000, 313.000000)">
                    <g id="小_系统/页面、数据维护" transform="translate(10.000000, 0.000000)">
                        <rect id="矩形" opacity="0" x="0" y="-9.09494702e-13" width="100" height="80"></rect>
                        <g id="数据维护" transform="translate(14.500059, 19.000000)">
                            <ellipse id="椭圆形" fill="#F9FAFE" cx="35.4999413" cy="43" rx="35" ry="8"></ellipse>
                            <path d="M7.49994131,1 C9.70908031,1 11.4999413,2.790861 11.4999413,5 L11.4999413,9 L11.4999413,9 L3.49994131,9 L3.49994131,5 C3.49994131,2.790861 5.29080231,1 7.49994131,1 Z" id="矩形" stroke="#BFCEED" fill="#FFFFFF"></path>
                            <g id="椭圆形" transform="translate(7.499941, 1.000000)"></g>
                            <path d="M39.9209445,14.9886943 L39.9209445,8 C39.4799235,3.65617566 37.0858578,1.31515571 32.7387476,0.976940154 C29.7085901,0.809917887 21.1552873,0.817604503 7.07883926,1 C10.096449,1.06931667 11.5701497,3.06154489 11.4999413,6.97668465 C11.4297329,10.8918244 11.3971968,18.2129671 11.4023331,28.9401128 C11.4350971,33.8171679 14.1072854,34.4341375 14.8511886,34.507989 C16.3960112,34.6693508 17.5307129,34.0218598 18.2552935,32.5655159 C19.3421645,30.381 20.3040851,29.8637257 23.6196177,29.9616841 C25.5439383,30.1553533 30.9777139,30.1553533 39.9209445,29.9616841 L39.9209445,14.9886943 Z" id="路径" stroke="#BFCEED" fill="#F4F7FD"></path>
                            <path d="M47.4999413,30 C51.3659346,30 54.4999413,33.1340068 54.4999413,37 L54.4999413,43 L27.5523766,43 L27.5529395,34.875 L27.5370256,34.8755004 C27.3328374,32.2824292 25.1878673,30.2126717 22.5004246,30.0153962 L22.5003766,30 L47.4999413,30 Z" id="形状结合" fill="#F4F7FD"></path>
                            <path d="M47.4999413,30 C51.3659346,30 54.4999413,33.1340068 54.4999413,37 L54.4999413,43 L27.5523766,43 L27.5529395,34.875 L27.5370256,34.8755004 C27.3328374,32.2824292 25.1878673,30.2126717 22.5004246,30.0153962 L22.5003766,30 L47.4999413,30 Z" id="形状结合" stroke="#BFCEED"></path>
                        </g>
                        <path d="M40.8219973,26 C44.3006417,26.3778345 47,29.1240287 47,32.4556583 C47,34.7173045 45.7560685,36.7091676 43.8688555,37.873501 L45.3908516,42.6637137 C45.556056,43.183798 45.273811,43.7402981 44.7565946,43.9142732 L42.9232433,44.5309541 C42.3997786,44.707031 41.832688,44.4254175 41.6566111,43.9019527 C41.654814,43.89661 41.6530622,43.8912523 41.6513557,43.88588 L40.084,38.954 L40,38.9556583 C36.2162619,38.9556583 33.1336934,36.1680279 33.0042331,32.6838531 L33,32.4556583 C33,30.2394379 34.1944638,28.2822722 36.0182121,27.1089706 L37.3904645,32.0340813 C37.3921048,32.0399685 37.393799,32.0458406 37.395547,32.0516968 C37.5535078,32.5809102 38.1105726,32.8818698 38.639786,32.7239089 L38.639786,32.7239089 L41.442711,31.8872853 C41.9650765,31.7313684 42.2663197,31.1857978 42.1200057,30.6606617 L42.1200057,30.6606617 Z" id="形状结合" stroke="#BFCEED" fill="#FFFFFF" transform="translate(40.000000, 35.291704) rotate(-20.000000) translate(-40.000000, -35.291704) "></path>
                    </g>
                </g>
            </g>
        </g>
    </g>
</svg>