<?xml version="1.0" encoding="UTF-8"?>
<svg width="180px" height="144px" viewBox="0 0 180 144" version="1.1" xmlns="http://www.w3.org/2000/svg" xmlns:xlink="http://www.w3.org/1999/xlink">
    <title>切片</title>
    <defs>
        <linearGradient x1="50%" y1="0%" x2="50%" y2="89.775513%" id="linearGradient-1">
            <stop stop-color="#DFDFDF" offset="0%"></stop>
            <stop stop-color="#F6F9FD" stop-opacity="0" offset="100%"></stop>
        </linearGradient>
        <linearGradient x1="50%" y1="0%" x2="50%" y2="81.7286783%" id="linearGradient-2">
            <stop stop-color="#DFDFDF" offset="0%"></stop>
            <stop stop-color="#F7F8FA" stop-opacity="0" offset="100%"></stop>
        </linearGradient>
        <linearGradient x1="63.0982491%" y1="28.2490042%" x2="52.9470123%" y2="113.257156%" id="linearGradient-3">
            <stop stop-color="#759DE6" offset="0%"></stop>
            <stop stop-color="#D5E4FF" offset="100%"></stop>
        </linearGradient>
        <linearGradient x1="50%" y1="0%" x2="50%" y2="100%" id="linearGradient-4">
            <stop stop-color="#729BE4" offset="0%"></stop>
            <stop stop-color="#90B4F6" offset="100%"></stop>
        </linearGradient>
        <linearGradient x1="50%" y1="0%" x2="50%" y2="100%" id="linearGradient-5">
            <stop stop-color="#C5D9FF" offset="0%"></stop>
            <stop stop-color="#84ACF4" offset="100%"></stop>
        </linearGradient>
        <linearGradient x1="50%" y1="0%" x2="50%" y2="100%" id="linearGradient-6">
            <stop stop-color="#739CE5" offset="0%"></stop>
            <stop stop-color="#D1E3FF" offset="100%"></stop>
        </linearGradient>
        <linearGradient x1="50%" y1="0%" x2="50%" y2="100%" id="linearGradient-7">
            <stop stop-color="#C5D9FF" offset="0%"></stop>
            <stop stop-color="#84ACF4" offset="100%"></stop>
        </linearGradient>
    </defs>
    <g id="页面-1" stroke="none" stroke-width="1" fill="none" fill-rule="evenodd">
        <g id="公共组件" transform="translate(-1355.000000, -1269.000000)">
            <g id="大_404" transform="translate(1355.000000, 1269.000000)">
                <g id="编组">
                    <rect id="矩形" fill="#D8D8D8" opacity="0" x="0" y="0" width="180" height="144"></rect>
                    <path d="M73,128 L56,128 L56,109 L22,109 L22,35 L56,35 L56,40 L73,40 L73,27 L75,27 L75,19 L80,19 L80,10 L83,10 L83,19 L88,19 L88,27 L90,27 L90,52 L116,52 L116,28 L142,28 L142,52 L159,52 L159,140 L142,140 L142,128 L116,128 L116,140 L90,140 L90,115 L73,115 L73,128 Z M135,36 L132,36 L132,74 L135,74 L135,36 Z M126,36 L123,36 L123,74 L126,74 L126,36 Z M48,54 L30,54 L30,57 L48,57 L48,54 Z M48,43 L30,43 L30,46 L48,46 L48,43 Z" id="形状结合" fill="url(#linearGradient-1)"></path>
                    <ellipse id="椭圆形" fill="url(#linearGradient-2)" cx="90" cy="119.5" rx="87" ry="11.5"></ellipse>
                </g>
                <g id="编组" transform="translate(33.000000, 61.000000)">
                    <g transform="translate(0.000000, 1.221444)">
                        <polygon id="路径-23" fill="url(#linearGradient-3)" points="22.4877404 18.5991651 11.4948262 38.9978814 7.71363915 38.4622526 19.9428764 15.0209321"></polygon>
                        <polygon id="路径-18" fill="url(#linearGradient-4)" points="28.257618 4.12114787e-13 30.693848 5.85668714 30.693848 37.1983302 28.1844491 37.1983302"></polygon>
                        <polygon id="路径-19" fill="#6E94DA" points="33.1339326 37.0011707 34.4763373 40.7840596 34.4763373 47.6524397 33.1339326 46.2681464"></polygon>
                        <polygon id="路径-20" fill="#6E94DA" points="28.257618 54.361561 30.693848 52.3779807 30.693848 47.4886647 28.257618 46.2698537"></polygon>
                        <polyline id="路径-21" fill="#C3D8FF" points="28.257618 46.2698537 30.693848 47.6684638 34.4763373 47.6524397 33.1339326 46.2698537"></polyline>
                        <polyline id="路径-22" fill="#C3D8FF" points="0 46.2698537 1.49451173 47.6684638 19.9428764 47.6684638 19.9428764 46.1962927"></polyline>
                        <path d="M28.257618,54.361561 L28.257618,46.2698537 L33.1339326,46.2698537 L33.1339326,37.0011707 L28.257618,37.0011707 L28.257618,-8.20590208e-14 L21.2557303,-8.20590208e-14 L-3.07529283e-13,38.2517073 L-3.07529283e-13,46.2698537 L19.9428764,46.2698537 L19.9428764,54.361561 L28.257618,54.361561 Z M19.9428764,37.0011707 L8.87739326,37.0011707 L19.9428764,16.5512195 L19.9428764,37.0011707 Z" id="404" fill="url(#linearGradient-5)" fill-rule="nonzero"></path>
                    </g>
                    <g transform="translate(72.134831, 1.221444)">
                        <polygon id="路径-23" fill="url(#linearGradient-3)" points="22.4877404 18.5991651 11.4948262 38.9978814 7.71363915 38.4622526 19.9428764 15.0209321"></polygon>
                        <polygon id="路径-18" fill="url(#linearGradient-4)" points="28.257618 4.12114787e-13 30.693848 5.85668714 30.693848 37.1983302 28.1844491 37.1983302"></polygon>
                        <polygon id="路径-19" fill="#6E94DA" points="33.1339326 37.0011707 34.4763373 40.7840596 34.4763373 47.6524397 33.1339326 46.2681464"></polygon>
                        <polygon id="路径-20" fill="#6E94DA" points="28.257618 54.361561 30.693848 52.3779807 30.693848 47.4886647 28.257618 46.2698537"></polygon>
                        <polyline id="路径-21" fill="#C3D8FF" points="28.257618 46.2698537 30.693848 47.6684638 34.4763373 47.6524397 33.1339326 46.2698537"></polyline>
                        <polyline id="路径-22" fill="#C3D8FF" points="0 46.2698537 1.49451173 47.6684638 19.9428764 47.6684638 19.9428764 46.1962927"></polyline>
                        <path d="M28.257618,54.361561 L28.257618,46.2698537 L33.1339326,46.2698537 L33.1339326,37.0011707 L28.257618,37.0011707 L28.257618,-8.20590208e-14 L21.2557303,-8.20590208e-14 L-3.07529283e-13,38.2517073 L-3.07529283e-13,46.2698537 L19.9428764,46.2698537 L19.9428764,54.361561 L28.257618,54.361561 Z M19.9428764,37.0011707 L8.87739326,37.0011707 L19.9428764,16.5512195 L19.9428764,37.0011707 Z" id="404" fill="url(#linearGradient-5)" fill-rule="nonzero"></path>
                    </g>
                    <path d="M54.680604,9.82807844 C49.8701512,11.3551454 47.4649248,15.842481 47.4649248,23.2900851 C47.4649248,34.4614914 47.4217848,34.5278254 47.9491048,40.2193257 C48.3006514,44.0136592 51.5087822,45.7216908 57.5734972,45.3434206 L50.0184848,50.3244541 C44.4778452,51.5574937 41.7075253,46.9727715 41.7075253,36.5702874 C41.7075253,20.9665611 45.1658957,4.86880247 51.5764045,5.93094307 C55.850077,6.63903681 56.8848102,7.93808193 54.680604,9.82807844 Z" id="路径-24" fill="#749CE5"></path>
                    <path d="M51.6701798,0.265151612 C55.4835543,-0.0883838708 58.1555864,-0.0883838708 59.6862761,0.265151612 C61.9823108,0.795454837 65.1033986,2.96423584 66.9460851,5.88109963 C68.7887716,8.79796343 70.2923002,13.4889823 70.2923002,20.7433109 C70.2923002,27.9976394 70.5411862,39.4731516 69.7303371,45.2572897 C69.1974778,49.0584054 66.6231307,54.5943898 61.561497,56.392176 C60.1117301,56.9071028 54.57991,57.2593804 51.6701798,56.9071028 C44.4978847,56.0387617 47.9305545,52.1554907 61.9681891,45.2572897 L63.3646146,12.9454621 L51.6701798,0.265151612 Z" id="路径-25" fill="url(#linearGradient-6)"></path>
                    <path d="M52.8892584,0.265151612 L53.3496266,0.294532475 C55.1859205,0.439042794 56.9600674,0.907395515 58.6720674,1.69959064 C60.5267341,2.55780202 62.1625918,3.82059877 63.5796404,5.48798088 C65.2050787,7.3515256 66.3199625,9.48479389 66.9242921,11.8877858 C67.5286217,14.2907776 67.8307865,16.7918508 67.8307865,19.3910053 L67.8307865,19.3910053 L67.8307865,37.7812492 L67.8232845,38.5139165 C67.7782724,40.7030911 67.5307056,42.8128199 67.0805843,44.8431028 C66.5804494,47.0989728 65.6218577,49.1586801 64.204809,51.0222248 C62.8711161,52.7876882 61.2769363,54.1608264 59.4222697,55.1416394 C57.567603,56.1224524 55.660839,56.6864199 53.7019775,56.8335419 C53.5352659,56.8825825 53.3685543,56.9071028 53.2018427,56.9071028 L53.2018427,56.9071028 L52.7017079,56.9071028 L52.2387323,56.9005349 C50.2387246,56.8436127 48.3195741,56.4166963 46.4812809,55.6197858 C44.5015805,54.7615744 42.7198502,53.449737 41.1360899,51.6842736 C39.3439401,49.7226475 38.1873783,47.5280784 37.6664045,45.1005662 C37.1454307,42.6730541 36.8849438,40.1106801 36.8849438,37.4134443 L36.8849438,37.4134443 L36.8849438,19.3174443 L36.8924458,18.6123623 C36.937458,16.5004267 37.1850247,14.4182833 37.6351461,12.3659321 C38.1352809,10.0855419 39.0730337,8.0380947 40.4484045,6.22359064 C41.7820974,4.45812722 43.3762772,3.08498901 45.2309438,2.104176 C47.0856105,1.12336299 48.9923745,0.53487519 50.951236,0.338712588 C51.2013034,0.289671938 51.4409513,0.265151612 51.6701798,0.265151612 L51.6701798,0.265151612 L52.8892584,0.265151612 Z M52.2640899,9.82807844 L51.8264719,9.82807844 L51.508099,9.86894565 C50.662192,9.99972072 49.8409829,10.3048625 49.0444719,10.7843711 C48.148397,11.3238183 47.3877753,12.0103874 46.7626067,12.8440784 C46.0957603,13.8739321 45.6685618,14.9405662 45.4810112,16.0439809 C45.2934607,17.1473955 45.1996854,18.312111 45.1996854,19.5381272 L45.1996854,19.5381272 L45.1996854,38.0019321 L45.2035927,38.2272126 C45.2114073,38.4570906 45.2309438,38.7007614 45.2622022,38.9582248 C45.3038801,39.9390378 45.4289139,40.9198508 45.6373034,41.9006638 C45.8456929,42.8814768 46.241633,43.7642085 46.8251236,44.5488589 C47.4086142,45.3335093 48.1067191,45.9710378 48.9194382,46.4614443 C49.7321573,46.9518508 50.5761348,47.2460947 51.4513708,47.344176 C51.5764045,47.3932167 51.7118577,47.417737 51.8577303,47.417737 L51.8577303,47.417737 L52.2640899,47.417737 C53.3477154,47.417737 54.3896629,47.1602736 55.3899326,46.6453467 C56.3902022,46.1304199 57.2237603,45.38255 57.8906067,44.401737 C58.5991311,43.3718833 59.0471685,42.2439484 59.2347191,41.0179321 C59.4222697,39.7919158 59.5160449,38.5413793 59.5160449,37.2663223 L59.5160449,37.2663223 L59.5160449,19.0967614 L59.5102563,18.675148 C59.4446522,16.305304 58.8214132,14.2635328 57.6405393,12.5498345 C56.3902022,10.7353305 54.5980524,9.82807844 52.2640899,9.82807844 L52.2640899,9.82807844 Z" id="形状结合" fill="url(#linearGradient-7)" fill-rule="nonzero"></path>
                </g>
            </g>
        </g>
    </g>
</svg>