<?xml version="1.0" encoding="UTF-8"?>
<svg width="180px" height="144px" viewBox="0 0 180 144" version="1.1" xmlns="http://www.w3.org/2000/svg" xmlns:xlink="http://www.w3.org/1999/xlink">
    <title>切片</title>
    <defs>
        <linearGradient x1="50%" y1="0%" x2="50%" y2="89.775513%" id="linearGradient-1">
            <stop stop-color="#DFDFDF" offset="0%"></stop>
            <stop stop-color="#F6F9FD" stop-opacity="0" offset="100%"></stop>
        </linearGradient>
        <linearGradient x1="50%" y1="0%" x2="50%" y2="81.7286783%" id="linearGradient-2">
            <stop stop-color="#DFDFDF" offset="0%"></stop>
            <stop stop-color="#F7F8FA" stop-opacity="0" offset="100%"></stop>
        </linearGradient>
        <linearGradient x1="54.0453766%" y1="0%" x2="54.0453766%" y2="68.4172116%" id="linearGradient-3">
            <stop stop-color="#C6DAFF" offset="0%"></stop>
            <stop stop-color="#5181D9" offset="100%"></stop>
        </linearGradient>
        <linearGradient x1="50%" y1="118.563594%" x2="50%" y2="-19.1313056%" id="linearGradient-4">
            <stop stop-color="#6B9AEF" offset="0%"></stop>
            <stop stop-color="#D8E9FF" offset="100%"></stop>
            <stop stop-color="#C6DAFF" offset="100%"></stop>
        </linearGradient>
    </defs>
    <g id="页面-1" stroke="none" stroke-width="1" fill="none" fill-rule="evenodd">
        <g id="公共组件" transform="translate(-1339.000000, -1061.000000)">
            <g id="编组" transform="translate(1339.000000, 1061.000000)">
                <g>
                    <rect id="矩形" fill="#D8D8D8" opacity="0" x="0" y="0" width="180" height="144"></rect>
                    <path d="M73,128 L56,128 L56,109 L22,109 L22,35 L56,35 L56,40 L73,40 L73,27 L75,27 L75,19 L80,19 L80,10 L83,10 L83,19 L88,19 L88,27 L90,27 L90,52 L116,52 L116,28 L142,28 L142,52 L159,52 L159,140 L142,140 L142,128 L116,128 L116,140 L90,140 L90,115 L73,115 L73,128 Z M135,36 L132,36 L132,74 L135,74 L135,36 Z M126,36 L123,36 L123,74 L126,74 L126,36 Z M48,54 L30,54 L30,57 L48,57 L48,54 Z M48,43 L30,43 L30,46 L48,46 L48,43 Z" id="形状结合" fill="url(#linearGradient-1)"></path>
                    <ellipse id="椭圆形" fill="url(#linearGradient-2)" cx="90" cy="119.5" rx="87" ry="11.5"></ellipse>
                </g>
                <g transform="translate(58.000000, 75.000000)" id="无数据">
                    <path d="M52.146547,2.15285601 L63,23 L63,23 L63,43.4914731 L58.812,32.519 L59.0894898,33.6774628 L8.265,31.034 L5.12497531,45 L2.2595259e-12,23 L13.9871469,1.79735506 C14.7273915,0.675243235 15.9817791,-2.72865902e-14 17.3260622,-2.84217094e-14 L48.5985815,-2.84217094e-14 C50.0901232,-2.60311659e-14 51.457774,0.829871436 52.146547,2.15285601 Z" id="路径" fill="url(#linearGradient-3)"></path>
                    <path d="M16.3661071,14.0056547 L49.5545608,14.0056547 C50.4419364,14.0056547 51.2232072,14.5903616 51.4734125,15.4417326 L56.3396418,32 L56.3396418,32 L6.5,33 L14.543241,15.1827579 C14.8667051,14.466226 15.5799475,14.0056547 16.3661071,14.0056547 Z" id="矩形" fill="#DEEAFC"></path>
                    <path d="M62.934543,23 L62.9940791,43.0100072 C62.9973539,44.1106595 62.1106839,45.0071031 61.0100619,45.015894 L2.38023349,45.4841816 C1.28332846,45.4929428 0.384061488,44.6165407 0.364575209,43.5197738 L-5.32907052e-14,23 L18.545,23 L19.5521193,28.5366563 C19.8006713,29.9036921 20.9520446,30.9129176 22.3236334,30.9946464 L22.5037291,31 L40.4962709,31 C41.9461294,31 43.1885221,29.9631284 43.4478807,28.5366563 L43.4478807,28.5366563 L44.454,23 L62.934543,23 Z" id="形状结合" fill="url(#linearGradient-4)"></path>
                </g>
            </g>
        </g>
    </g>
</svg>