<?xml version="1.0" encoding="UTF-8"?>
<svg width="20px" height="20px" viewBox="0 0 20 20" version="1.1" xmlns="http://www.w3.org/2000/svg" xmlns:xlink="http://www.w3.org/1999/xlink">
    <title>切片</title>
    <g id="页面-1" stroke="none" stroke-width="1" fill="none" fill-rule="evenodd">
        <g id="公共组件" transform="translate(-496.000000, -304.000000)" fill="#BFBFBF">
            <g id="icon/common/checkbox_check" transform="translate(496.000000, 304.000000)">
                <path d="M10,0 C15.5228475,0 20,4.4771525 20,10 C20,15.5228475 15.5228475,20 10,20 C4.4771525,20 0,15.5228475 0,10 C0,4.4771525 4.4771525,0 10,0 Z M14.2156177,6.13175923 C13.9253991,5.92576487 13.5258316,5.96221379 13.2752493,6.2347641 L13.2752493,6.2347641 L8.77395994,11.1306725 L6.70021475,8.87590048 C6.40827032,8.587093 5.94591403,8.59848254 5.66751307,8.90133974 L5.66751307,8.90133974 L5.20182406,9.40793739 C4.93272531,9.70067522 4.93272531,10.161064 5.20182406,10.4538018 L5.20182406,10.4538018 L8.24581306,13.7651912 L8.36267699,13.8682756 C8.65291181,14.0742454 9.05247649,14.0377627 9.30303735,13.7651912 L9.30303735,13.7651912 L14.7981759,7.78733003 C15.0672747,7.49459219 15.0672747,7.03420343 14.7981759,6.7414656 L14.7981759,6.7414656 L14.3324325,6.23480876 Z" id="形状结合"></path>
            </g>
        </g>
    </g>
</svg>