<?xml version="1.0" encoding="UTF-8"?>
<svg width="20px" height="20px" viewBox="0 0 20 20" version="1.1" xmlns="http://www.w3.org/2000/svg" xmlns:xlink="http://www.w3.org/1999/xlink">
    <title>图表icon/common/checkbox_check</title>
    <defs>
        <path d="M10,0 C15.4292399,0 19.8479317,4.32549728 19.9961582,9.72003549 L20,10 C20,15.4292399 15.6745027,19.8479317 10.2799645,19.9961582 L10,20 C4.4771525,20 0,15.5240618 0,10 C0,4.57076009 4.32549728,0.152068282 9.72003549,0.00384179753 L10,0 Z M14.0241777,5.665401 L8.79255956,12.0529327 L6.07352661,9.34235751 C5.70171435,8.81262948 4.97164277,8.64151695 4.39161422,8.96699276 C3.78104064,9.30960854 3.56844519,10.0711704 3.91851723,10.6696425 L4.00893004,10.7908782 L7.66269354,14.6987812 C7.8649214,14.9930085 8.18585554,15.1901763 8.5480321,15.2388087 C8.63378636,15.2493136 8.63378636,15.2493136 8.7191005,15.250785 C9.05602663,15.250785 9.38012545,15.1205128 9.61993405,14.8856347 L9.6946464,14.807514 L15.8795021,7.37172504 C16.37502,6.88328387 16.3730546,6.09499646 15.8749165,5.60710489 C15.3762222,5.1217748 14.5713875,5.1236998 14.0241777,5.665401 Z" id="path-1"></path>
    </defs>
    <g id="页面-1" stroke="none" stroke-width="1" fill="none" fill-rule="evenodd">
        <g id="公共组件" transform="translate(-885.000000, -2661.000000)">
            <g id="图表icon/common/checkbox_check" transform="translate(885.000000, 2661.000000)">
                <mask id="mask-2" fill="white">
                    <use xlink:href="#path-1"></use>
                </mask>
                <use id="checkbox_check" fill="#4059CD" xlink:href="#path-1"></use>
            </g>
        </g>
    </g>
</svg>