<?xml version="1.0" encoding="UTF-8"?>
<svg width="29px" height="30px" viewBox="0 0 29 30" version="1.1" xmlns="http://www.w3.org/2000/svg" xmlns:xlink="http://www.w3.org/1999/xlink">
    <title>切片</title>
    <defs>
        <path d="M9.5,0 C10.3284271,0 11,0.671572875 11,1.5 L11,1.5 L11,8 L17.5,8 C18.2796961,8 18.9204487,8.59488808 18.9931334,9.35553999 L19,9.5 C19,10.3284271 18.3284271,11 17.5,11 L17.5,11 L11,11 L11,17.5 C11,18.2796961 10.4051119,18.9204487 9.64446001,18.9931334 L9.5,19 C8.67157288,19 8,18.3284271 8,17.5 L8,17.5 L8,11 L1.5,11 C0.720303883,11 0.0795513218,10.4051119 0.00686657806,9.64446001 L0,9.5 C0,8.67157288 0.671572875,8 1.5,8 L1.5,8 L8,8 L8,1.5 C8,0.720303883 8.59488808,0.0795513218 9.35553999,0.00686657806 Z" id="path-1"></path>
    </defs>
    <g id="页面-1" stroke="none" stroke-width="1" fill="none" fill-rule="evenodd">
        <g id="新客专享-活动规则" transform="translate(-902.000000, -131.000000)">
            <g id="编组-14" transform="translate(140.000000, 120.000000)">
                <g id="icon/common/cross" transform="translate(776.842136, 26.000000) rotate(-315.000000) translate(-776.842136, -26.000000) translate(767.342136, 16.500000)">
                    <mask id="mask-2" fill="white">
                        <use xlink:href="#path-1"></use>
                    </mask>
                    <use id="plus" fill="#BFBFBF" xlink:href="#path-1"></use>
                </g>
            </g>
        </g>
    </g>
</svg>