<?xml version="1.0" encoding="UTF-8"?>
<svg width="20px" height="20px" viewBox="0 0 20 20" version="1.1" xmlns="http://www.w3.org/2000/svg" xmlns:xlink="http://www.w3.org/1999/xlink">
    <title>切片</title>
    <g id="页面-1" stroke="none" stroke-width="1" fill="none" fill-rule="evenodd">
        <g id="公共组件" transform="translate(-104.000000, -248.000000)" fill="#BFBFBF">
            <g id="icon/prompt/error" transform="translate(104.000000, 248.000000)">
                <path d="M10,0 C15.5228475,0 20,4.4771525 20,10 C20,15.5228475 15.5228475,20 10,20 C4.4771525,20 0,15.5228475 0,10 C0,4.4771525 4.4771525,0 10,0 Z M7.17157288,5.75735931 C6.78104858,5.36683502 6.1478836,5.36683502 5.75735931,5.75735931 C5.39687535,6.11784327 5.36914582,6.68507433 5.67417071,7.07736554 L5.75735931,7.17157288 L8.58507933,9.99929289 L5.75735931,12.8284271 C5.36683502,13.2189514 5.36683502,13.8521164 5.75735931,14.2426407 C6.11784327,14.6031246 6.68507433,14.6308542 7.07736554,14.3258293 L7.17157288,14.2426407 L9.99929289,11.4135065 L12.8284271,14.2426407 C13.2189514,14.633165 13.8521164,14.633165 14.2426407,14.2426407 C14.6031246,13.8821567 14.6308542,13.3149257 14.3258293,12.9226345 L14.2426407,12.8284271 L11.4142136,10 L14.2426407,7.17157288 C14.633165,6.78104858 14.633165,6.1478836 14.2426407,5.75735931 C13.8821567,5.39687535 13.3149257,5.36914582 12.9226345,5.67417071 L12.8284271,5.75735931 L10,8.58578644 L7.17157288,5.75735931 Z" id="形状"></path>
            </g>
        </g>
    </g>
</svg>