<?xml version="1.0" encoding="UTF-8"?>
<svg width="20px" height="20px" viewBox="0 0 20 20" version="1.1" xmlns="http://www.w3.org/2000/svg" xmlns:xlink="http://www.w3.org/1999/xlink">
    <title>切片</title>
    <g id="页面-1" stroke="none" stroke-width="1" fill="none" fill-rule="evenodd">
        <g id="公共组件" transform="translate(-384.000000, -248.000000)" fill="#BFBFBF">
            <g id="icon/common/del" transform="translate(384.000000, 248.000000)">
                <path d="M13,0 C13.5522847,0 14,0.44771525 14,1 L14,3 L19,3 C19.5522847,3 20,3.44771525 20,4 L20,5 C20,5.55228475 19.5522847,6 19,6 L17,6 L17,19 C17,19.5522847 16.5522847,20 16,20 L4,20 C3.44771525,20 3,19.5522847 3,19 L3,6 L1,6 C0.44771525,6 0,5.55228475 0,5 L0,4 C0,3.44771525 0.44771525,3 1,3 L6,3 L6,1 C6,0.44771525 6.44771525,0 7,0 L13,0 Z M8,8 C7.48716416,8 7.06449284,8.38604019 7.00672773,8.88337887 L7,9 L7,16 C7,16.5522847 7.44771525,17 8,17 C8.51283584,17 8.93550716,16.6139598 8.99327227,16.1166211 L9,16 L9,9 C9,8.44771525 8.55228475,8 8,8 Z M12,8 C11.4871642,8 11.0644928,8.38604019 11.0067277,8.88337887 L11,9 L11,16 C11,16.5522847 11.4477153,17 12,17 C12.5128358,17 12.9355072,16.6139598 12.9932723,16.1166211 L13,16 L13,9 C13,8.44771525 12.5522847,8 12,8 Z" id="形状"></path>
            </g>
        </g>
    </g>
</svg>