<?xml version="1.0" encoding="UTF-8"?>
<svg width="10px" height="11px" viewBox="0 0 10 11" version="1.1" xmlns="http://www.w3.org/2000/svg" xmlns:xlink="http://www.w3.org/1999/xlink">
    <title>切片</title>
    <defs>
        <path d="M3.72835956,4.75 L0.210669381,8.2709684 C-0.0714435497,8.55334424 -0.0700391785,9.00976883 0.213806132,9.29042126 C0.497651442,9.57107369 0.956451246,9.56967658 1.23856418,9.28730075 L4.75,5.77259253 L8.26143582,9.28730075 C8.54354875,9.56967658 9.00234856,9.57107369 9.28619387,9.29042126 C9.57003918,9.00976883 9.57144355,8.55334424 9.28933062,8.2709684 L5.77164044,4.75 L9.28933062,1.2290316 C9.57144355,0.946655759 9.57003918,0.490231169 9.28619387,0.209578742 C9.00234856,-0.0710736853 8.54354875,-0.0696765845 8.26143582,0.212699254 L4.75,3.72740747 L1.23856418,0.212699254 C0.956451246,-0.0696765845 0.497651442,-0.0710736853 0.213806132,0.209578742 C-0.0700391785,0.490231169 -0.0714435497,0.946655759 0.210669381,1.2290316 L3.72835956,4.75 Z" id="path-1"></path>
    </defs>
    <g id="页面-1" stroke="none" stroke-width="1" fill="none" fill-rule="evenodd">
        <g id="产品对比热门基金-3" transform="translate(-1014.000000, -234.000000)">
            <g id="图表icon/common/error" transform="translate(1014.250000, 234.600000)">
                <mask id="mask-2" fill="white">
                    <use xlink:href="#path-1"></use>
                </mask>
                <use id="error" fill="#BFBFBF" xlink:href="#path-1"></use>
            </g>
        </g>
    </g>
</svg>