<?xml version="1.0" encoding="UTF-8"?>
<svg width="7px" height="13px" viewBox="0 0 7 13" version="1.1" xmlns="http://www.w3.org/2000/svg" xmlns:xlink="http://www.w3.org/1999/xlink">
    <title>编组 8备份 5</title>
    <g id="页面-1" stroke="none" stroke-width="1" fill="none" fill-rule="evenodd">
        <g id="公共组件" transform="translate(-221.000000, -481.000000)" fill="#BFBFBF">
            <g id="编组-8备份-5" transform="translate(221.000000, 481.170585)">
                <path d="M0.317905076,12.6908011 C0.249570822,12.6908011 0.183055508,12.6646673 0.128220141,12.6162741 C-0.0126619762,12.491943 -0.0419446592,12.2556093 0.0628154378,12.088408 L3.24492022,7.0096416 C3.26341638,6.98012099 3.28545116,6.95396974 3.31032493,6.93201818 C3.45120704,6.80768711 3.6503394,6.8424403 3.7550995,7.0096416 L6.93720428,12.088408 C6.97797992,12.1534875 7,12.2324291 7,12.3135293 C7,12.5218908 6.85767788,12.6908011 6.68211465,12.6908011 L0.317905076,12.6908011 Z" id="caret_bottom" transform="translate(3.500000, 9.774134) scale(1, -1) translate(-3.500000, -9.774134) "></path>
                <path d="M0.317905076,5.83333333 C0.249570822,5.83333333 0.183055508,5.80719953 0.128220141,5.75880631 C-0.0126619762,5.63447523 -0.0419446592,5.39814155 0.0628154378,5.23094025 L3.24492022,0.152173852 C3.26341638,0.122653239 3.28545116,0.0965019942 3.31032493,0.0745504338 C3.45120704,-0.0497806375 3.6503394,-0.0150274495 3.7550995,0.152173852 L6.93720428,5.23094025 C6.97797992,5.2960198 7,5.37496131 7,5.45606157 C7,5.66442301 6.85767788,5.83333333 6.68211465,5.83333333 L0.317905076,5.83333333 Z" id="caret_bottom备份"></path>
            </g>
        </g>
    </g>
</svg>