<?xml version="1.0" encoding="UTF-8"?>
<svg width="12px" height="12px" viewBox="0 0 12 12" version="1.1" xmlns="http://www.w3.org/2000/svg" xmlns:xlink="http://www.w3.org/1999/xlink">
    <title>切片</title>
    <g id="页面-1" stroke="none" stroke-width="1" fill="none" fill-rule="evenodd">
        <g id="公共组件" transform="translate(-1351.000000, -654.000000)" fill="#4059CD">
            <g id="编组-5" transform="translate(1339.000000, 642.000000)">
                <g id="编组-2" transform="translate(12.000000, 8.000000)">
                    <g id="icon/功能/-common-/-voice" transform="translate(0.000000, 4.000000)">
                        <path d="M6.46544759,0.959356597 C6.55248301,1.06634951 6.6,1.20006116 6.6,1.33798377 L6.6,10.9045213 C6.6,11.2358922 6.33137085,11.5045213 6,11.5045213 C5.87408895,11.5045213 5.75136862,11.4649105 5.64921763,11.3912982 L2.43693257,9.07645333 L0.6,9.07645333 C0.26862915,9.07645333 1.51603528e-16,8.80782418 0,8.47645333 L0,4.2261914 C1.83948576e-16,3.91511371 0.237749916,3.65562659 0.547640877,3.62848033 L2.43693257,3.46297953 L5.62137282,0.872536181 C5.87843243,0.663426165 6.25633758,0.70229699 6.46544759,0.959356597 Z M10.5612437,2.55743664 C11.4894985,3.47702642 12,4.6985865 12,5.99976771 C12,7.30102557 11.4894985,8.52248985 10.5612437,9.44207963 C10.4560029,9.54790908 10.316784,9.6 10.1774877,9.6 C10.0382689,9.6 9.89904999,9.54790907 9.79230069,9.44207963 C9.58032984,9.2321641 9.58032984,8.89038323 9.79230069,8.68041023 C10.5147923,7.96466285 10.9123561,7.01288742 10.9123561,5.99976771 C10.9123561,4.98670547 10.5147923,4.03493004 9.79230069,3.31920182 C9.58032984,3.10920966 9.58032984,2.7674288 9.79230069,2.55743664 C10.0042715,2.34752112 10.3492729,2.34752112 10.5612437,2.55743664 Z M8.7279212,3.80047296 C9.95161241,5.01274135 9.95161241,6.98528058 8.7279212,8.19762559 C8.62269965,8.30337841 8.48346143,8.35546934 8.34424256,8.35546934 C8.20494633,8.35546934 8.06572744,8.30337841 7.95897814,8.19762559 C7.74700729,7.98763343 7.74700729,7.64587173 7.95897814,7.43587957 C8.75882435,6.64349971 8.75882435,5.35452221 7.95897814,4.56216151 C7.74700729,4.35216935 7.74700729,4.01038849 7.95897814,3.80047296 C8.17094899,3.5904808 8.51595035,3.5904808 8.7279212,3.80047296 Z" id="形状结合"></path>
                    </g>
                </g>
            </g>
        </g>
    </g>
</svg>