<?xml version="1.0" encoding="UTF-8"?>
<svg width="20px" height="20px" viewBox="0 0 20 20" version="1.1" xmlns="http://www.w3.org/2000/svg" xmlns:xlink="http://www.w3.org/1999/xlink">
    <title>切片</title>
    <defs>
        <path d="M10,3.75 C10.5450178,3.75 10.9868421,4.19182426 10.9868421,4.73684211 L10.9868421,4.73684211 L10.986,9.013 L15.2631579,9.01315789 C15.7692459,9.01315789 16.1863558,9.39411861 16.2433608,9.88491336 L16.25,10 C16.25,10.5450178 15.8081757,10.9868421 15.2631579,10.9868421 L15.2631579,10.9868421 L10.986,10.986 L10.9868421,15.2631579 C10.9868421,15.7692459 10.6058814,16.1863558 10.1150866,16.2433608 L10,16.25 C9.45498215,16.25 9.01315789,15.8081757 9.01315789,15.2631579 L9.01315789,15.2631579 L9.013,10.986 L4.73684211,10.9868421 C4.23075411,10.9868421 3.81364425,10.6058814 3.75663921,10.1150866 L3.75,10 C3.75,9.45498215 4.19182426,9.01315789 4.73684211,9.01315789 L4.73684211,9.01315789 L9.013,9.013 L9.01315789,4.73684211 C9.01315789,4.23075411 9.39411861,3.81364425 9.88491336,3.75663921 Z" id="path-1"></path>
    </defs>
    <g id="页面-1" stroke="none" stroke-width="1" fill="none" fill-rule="evenodd">
        <g id="公共组件" transform="translate(-104.000000, -360.000000)">
            <g id="icon/添加" transform="translate(104.000000, 360.000000)">
                <g id="编组-21">
                    <circle id="椭圆形" fill="#E1F0FF" cx="10" cy="10" r="10"></circle>
                    <mask id="mask-2" fill="white">
                        <use xlink:href="#path-1"></use>
                    </mask>
                    <use id="plus" fill="#4059CD" xlink:href="#path-1"></use>
                </g>
                <g id="图表icon/common/plus" transform="translate(3.750000, 3.750000)"></g>
            </g>
        </g>
    </g>
</svg>