<?xml version="1.0" encoding="UTF-8"?>
<svg width="20px" height="20px" viewBox="0 0 20 20" version="1.1" xmlns="http://www.w3.org/2000/svg" xmlns:xlink="http://www.w3.org/1999/xlink">
    <title>切片</title>
    <defs>
        <path d="M10.1243671,2 C5.65114027,2 2.02487342,5.581722 2.02487342,10 C2.02487342,14.418278 5.65114027,18 10.1243671,18 C12.1662172,18 14.0873325,17.2521437 15.5680536,15.923756 C15.9819608,15.5524308 16.6222611,15.5828285 16.9982044,15.9916512 C17.3741477,16.4004739 17.3433719,17.0329088 16.9294648,17.404234 C15.0796405,19.0637522 12.6745797,20 10.1243671,20 C4.53283356,20 0,15.5228475 0,10 C0,4.4771525 4.53283356,0 10.1243671,0 C13.2383663,0 16.0922312,1.40161212 17.9751266,3.68329524 L17.9751266,1.36951126 C17.9751266,0.817226507 18.4284099,0.369511257 18.9875633,0.369511257 C19.5467166,0.369511257 20,0.817226507 20,1.36951126 L20,6.52943389 C20,7.08171864 19.5467166,7.52943389 18.9875633,7.52943389 L13.9954469,7.52943389 C13.4362936,7.52943389 12.9830102,7.08171864 12.9830102,6.52943389 C12.9830102,5.97714914 13.4362936,5.52943389 13.9954469,5.52943389 L16.8433144,5.52943389 C15.3645095,3.36267372 12.8710633,2 10.1243671,2 Z" id="path-1"></path>
    </defs>
    <g id="页面-1" stroke="none" stroke-width="1" fill="none" fill-rule="evenodd">
        <g id="公共组件" transform="translate(-496.000000, -361.000000)">
            <g id="icon/common/refresh" transform="translate(496.000000, 361.000000)">
                <mask id="mask-2" fill="white">
                    <use xlink:href="#path-1"></use>
                </mask>
                <use id="refresh" fill="#BFBFBF" xlink:href="#path-1"></use>
            </g>
        </g>
    </g>
</svg>