<?xml version="1.0" encoding="UTF-8"?>
<svg width="14px" height="14px" viewBox="0 0 14 14" version="1.1" xmlns="http://www.w3.org/2000/svg" xmlns:xlink="http://www.w3.org/1999/xlink">
    <title>扫一扫</title>
    <g id="页面-1" stroke="none" stroke-width="1" fill="none" fill-rule="evenodd">
        <g id="新客专享" transform="translate(-920.000000, -693.000000)">
            <g id="编组-6备份-8-+-编组-6备份-9-蒙版" transform="translate(24.000000, 92.000000)">
                <g id="编组-4备份-7" transform="translate(0.000000, 563.000000)">
                    <g id="扫一扫" transform="translate(896.000000, 38.000000)">
                        <rect id="矩形" fill="#000000" fill-rule="nonzero" opacity="0" x="0" y="0" width="14" height="14"></rect>
                        <path d="M0.256292909,4.21609196 L0.256292909,1.25497541 C0.256292909,0.70269066 0.704008159,0.254975409 1.25629291,0.254975409 L12.7471899,0.254975409 C13.2994746,0.254975409 13.7471899,0.70269066 13.7471899,1.25497541 L13.7471899,4.21609196 L13.7471899,4.21609196" id="路径-3" stroke="#4059CD" stroke-width="0.5" stroke-linecap="round"></path>
                        <path d="M13.7431193,6.93678161 L0.256880736,6.93678161 C0.128440368,6.93678161 0,6.84303162 0,6.68678161 C0,6.53053161 0.0963302726,6.43678161 0.256880736,6.43678161 L13.7431193,6.43678161 C13.8715596,6.43678161 14,6.53053161 14,6.68678161 C14,6.84303162 13.8715596,6.93678161 13.7431193,6.93678161 L13.7431193,6.93678161 Z" id="路径" fill="#4059CD" fill-rule="nonzero"></path>
                        <path d="M0.256292909,13.7502594 L0.256292909,10.7891428 C0.256292909,10.2368581 0.704008159,9.78914285 1.25629291,9.78914285 L12.7471899,9.78914285 C13.2994746,9.78914285 13.7471899,10.2368581 13.7471899,10.7891428 L13.7471899,13.7502594 L13.7471899,13.7502594" id="路径-3备份" stroke="#4059CD" stroke-width="0.5" stroke-linecap="round" transform="translate(7.001741, 11.769701) scale(1, -1) translate(-7.001741, -11.769701) "></path>
                    </g>
                </g>
            </g>
        </g>
    </g>
</svg>