<?xml version="1.0" encoding="UTF-8"?>
<svg width="20px" height="20px" viewBox="0 0 20 20" version="1.1" xmlns="http://www.w3.org/2000/svg" xmlns:xlink="http://www.w3.org/1999/xlink">
    <title>切片</title>
    <g id="页面-1" stroke="none" stroke-width="1" fill="none" fill-rule="evenodd">
        <g id="公共组件" transform="translate(-328.000000, -248.000000)" fill="#BFBFBF">
            <g id="icon/common/search" transform="translate(328.000000, 248.000000)">
                <path d="M9.06594879,0 C14.0729341,0 18.1318976,4.04460662 18.1318976,9.03388172 C18.1318976,10.9895867 17.508239,12.8001437 16.4482872,14.2788498 L19.5611789,17.3806679 C20.1442042,17.961631 20.1458759,18.90523 19.5649129,19.4882553 C19.5636704,19.4895022 19.5624257,19.4907468 19.5611789,19.4919893 L19.4383228,19.6144108 C18.9205436,20.1303586 18.0829985,20.1303586 17.5652193,19.6144108 L14.3295832,16.3900736 C12.8456192,17.4462972 11.0286172,18.0677634 9.06594879,18.0677634 C4.05896353,18.0677634 0,14.0231568 0,9.03388172 C0,4.04460662 4.05896353,0 9.06594879,0 Z M9.06594879,3.04081717 C5.74432174,3.04081717 3.05161099,5.72400356 3.05161099,9.03388172 C3.05161099,12.3437599 5.74432174,15.0269463 9.06594879,15.0269463 C12.3875758,15.0269463 15.0802866,12.3437599 15.0802866,9.03388172 C15.0802866,5.72400356 12.3875758,3.04081717 9.06594879,3.04081717 Z" id="形状结合"></path>
            </g>
        </g>
    </g>
</svg>