<?xml version="1.0" encoding="UTF-8"?>
<svg width="16px" height="16px" viewBox="0 0 16 16" version="1.1" xmlns="http://www.w3.org/2000/svg" xmlns:xlink="http://www.w3.org/1999/xlink">
    <title>切片</title>
    <g id="页面-1" stroke="none" stroke-width="1" fill="none" fill-rule="evenodd">
        <g id="公共组件" transform="translate(-1698.000000, -2724.000000)" fill="#4059CD">
            <g id="搜索框/ipad/medium/激活态" transform="translate(1686.000000, 2713.000000)">
                <g id="图表icon/common/search" transform="translate(12.000000, 11.000000)">
                    <path d="M7.25275903,0 C11.2583472,0 14.5055181,3.23568529 14.5055181,7.22710538 C14.5055181,8.79162164 14.0066216,10.2400265 13.1587074,11.4229716 L15.6489431,13.9045344 C16.1153633,14.3693048 16.1167007,15.124184 15.6519303,15.5906042 C15.6509363,15.5916017 15.6499406,15.5925974 15.6489431,15.5935914 L15.5506582,15.6915287 C15.1364349,16.1042869 14.4663988,16.1042869 14.0521754,15.6915287 L11.463519,13.1121638 C10.276375,13.9570789 8.82282877,14.4542108 7.25275903,14.4542108 C3.24717083,14.4542108 0,11.2185255 0,7.22710538 C0,3.23568529 3.24717083,0 7.25275903,0 Z M7.25275903,2.43265373 C4.59545739,2.43265373 2.44128879,4.57920285 2.44128879,7.22710538 C2.44128879,9.87500791 4.59545739,12.021557 7.25275903,12.021557 C9.91006068,12.021557 12.0642293,9.87500791 12.0642293,7.22710538 C12.0642293,4.57920285 9.91006068,2.43265373 7.25275903,2.43265373 Z" id="形状结合"></path>
                </g>
            </g>
        </g>
    </g>
</svg>