<?xml version="1.0" encoding="UTF-8"?>
<svg width="20px" height="20px" viewBox="0 0 20 20" version="1.1" xmlns="http://www.w3.org/2000/svg" xmlns:xlink="http://www.w3.org/1999/xlink">
    <title>切片</title>
    <defs>
        <path d="M10,0 C13.3333333,0 16.6666667,2.5 20,7.5 C16.6666667,12.5 13.3333333,15 10,15 C6.66666667,15 3.33333333,12.5 0,7.5 C3.33333333,2.5 6.66666667,0 10,0 Z M10,2 C7.69339598,2 5.14656702,3.76119119 2.43477295,7.5 C5.14656702,11.2388088 7.69339598,13 10,13 C12.306604,13 14.853433,11.2388088 17.5652271,7.5 C14.853433,3.76119119 12.306604,2 10,2 Z M10,4.5 C11.6568542,4.5 13,5.84314575 13,7.5 C13,9.15685425 11.6568542,10.5 10,10.5 C8.34314575,10.5 7,9.15685425 7,7.5 C7,5.84314575 8.34314575,4.5 10,4.5 Z M10,6.5 C9.44771525,6.5 9,6.94771525 9,7.5 C9,8.05228475 9.44771525,8.5 10,8.5 C10.5522847,8.5 11,8.05228475 11,7.5 C11,6.94771525 10.5522847,6.5 10,6.5 Z" id="path-1"></path>
    </defs>
    <g id="页面-1" stroke="none" stroke-width="1" fill="none" fill-rule="evenodd">
        <g id="公共组件" transform="translate(-160.000000, -248.000000)">
            <g id="icon/function/see" transform="translate(160.000000, 250.500000)">
                <mask id="mask-2" fill="white">
                    <use xlink:href="#path-1"></use>
                </mask>
                <use id="Mask" fill="#BFBFBF" xlink:href="#path-1"></use>
            </g>
        </g>
    </g>
</svg>