<?xml version="1.0" encoding="UTF-8"?>
<svg width="14px" height="14px" viewBox="0 0 14 14" version="1.1" xmlns="http://www.w3.org/2000/svg" xmlns:xlink="http://www.w3.org/1999/xlink">
    <title>图表icon/prompt/question备份 2</title>
    <defs>
        <path d="M7,0 C10.8659932,0 14,3.13400675 14,7 C14,10.8659932 10.8659932,14 7,14 C3.13400675,14 0,10.8659932 0,7 C0,3.13400675 3.13400675,0 7,0 Z M7,9.59848485 C6.64854607,9.59848485 6.36363636,9.88339455 6.36363636,10.2348485 C6.36363636,10.5863024 6.64854607,10.8712121 7,10.8712121 C7.35145393,10.8712121 7.63636364,10.5863024 7.63636364,10.2348485 C7.63636364,9.88339455 7.35145393,9.59848485 7,9.59848485 Z M7,3.18181818 C6.64854607,3.18181818 6.36363636,3.46672789 6.36363636,3.81818182 L6.36363636,8.37783061 C6.36363636,8.72928454 6.64854607,9.01419425 7,9.01419425 C7.35145393,9.01419425 7.63636364,8.72928454 7.63636364,8.37783061 L7.63636364,3.81818182 C7.63636364,3.46672789 7.35145393,3.18181818 7,3.18181818 Z" id="path-1"></path>
    </defs>
    <g id="页面-1" stroke="none" stroke-width="1" fill="none" fill-rule="evenodd">
        <g id="公共组件" transform="translate(-1351.000000, -706.000000)">
            <g id="编组-2" transform="translate(1339.000000, 698.000000)">
                <g id="图表icon/prompt/question备份-2" transform="translate(12.000000, 8.000000)">
                    <mask id="mask-2" fill="white">
                        <use xlink:href="#path-1"></use>
                    </mask>
                    <use id="warning" fill="#B17E1A" xlink:href="#path-1"></use>
                </g>
            </g>
        </g>
    </g>
</svg>